<svg xmlns="http://www.w3.org/2000/svg" version="1.1" xmlns:xlink="http://www.w3.org/1999/xlink" xmlns:svgjs="http://svgjs.dev/svgjs" width="1000" height="510" viewBox="0 0 1000 510"><g transform="matrix(1,0,0,1,-0.6060598978685903,0.4014825720490478)"><svg viewBox="0 0 396 202" data-background-color="#ffffff" preserveAspectRatio="xMidYMid meet" height="510" width="1000" xmlns="http://www.w3.org/2000/svg" xmlns:xlink="http://www.w3.org/1999/xlink"><g id="tight-bounds" transform="matrix(1,0,0,1,0.23999971955595356,-0.15901858736060603)"><svg viewBox="0 0 395.52 202.3180371747212" height="202.3180371747212" width="395.52"><g><svg viewBox="0 0 395.52 202.3180371747212" height="202.3180371747212" width="395.52"><g><svg viewBox="0 0 395.52 202.3180371747212" height="202.3180371747212" width="395.52"><g id="textblocktransform"><svg viewBox="0 0 395.52 202.3180371747212" height="202.3180371747212" width="395.52" id="textblock"><g><svg viewBox="0 0 395.52 202.3180371747212" height="202.3180371747212" width="395.52"><g transform="matrix(1,0,0,1,0,0)"><svg width="395.52" viewBox="2.5999999046325684 -33.95000076293945 67.25 34.400001525878906" height="202.3180371747212" data-palette-color="#c10000"><path d="M2.6 0.15L2.6 0.15Q2.6-0.6 2.65-1.23 2.7-1.85 2.85-2.25L2.85-2.25Q4.2-2.35 4.95-2.78 5.7-3.2 6.03-4.25 6.35-5.3 6.35-7.3L6.35-7.3 6.35-27Q6.35-28.8 6.05-29.73 5.75-30.65 5-31.05 4.25-31.45 2.9-31.55L2.9-31.55Q2.75-32 2.7-32.65 2.65-33.3 2.65-33.95L2.65-33.95Q3.5-33.9 4.8-33.88 6.1-33.85 7.53-33.83 8.95-33.8 10.2-33.8L10.2-33.8Q11.55-33.8 13.03-33.85 14.5-33.9 16-33.9L16-33.9Q18.65-33.9 21.35-33.52 24.05-33.15 26.48-32.18 28.9-31.2 30.78-29.38 32.65-27.55 33.73-24.73 34.8-21.9 34.8-17.75L34.8-17.75Q34.8-13.7 33.8-10.8 32.8-7.9 31.15-5.95 29.5-4 27.45-2.8 25.4-1.6 23.28-1 21.15-0.4 19.23-0.2 17.3 0 15.95 0L15.95 0Q14.55 0 12.68 0 10.8 0 8.83 0.03 6.85 0.05 5.2 0.08 3.55 0.1 2.6 0.15ZM16.25-2.5L16.25-2.5Q18.9-2.5 21.18-3.15 23.45-3.8 25.2-5.43 26.95-7.05 27.93-9.88 28.9-12.7 28.9-17L28.9-17Q28.9-21 27.78-23.85 26.65-26.7 24.7-28.43 22.75-30.15 20.33-30.93 17.9-31.7 15.3-31.7L15.3-31.7Q14.25-31.7 13.03-31.53 11.8-31.35 11.4-31.05L11.4-31.05 11.85-32.5 11.85-7.3Q11.85-5.4 12.2-4.35 12.55-3.3 13.53-2.9 14.5-2.5 16.25-2.5ZM61.2 0.45L61.2 0.45Q60.3-1.15 59.67-2.27 59.05-3.4 58.55-4.45 58.05-5.5 57.4-6.65L57.4-6.65Q56.5-8.45 55.65-9.85 54.8-11.25 53.7-12.63 52.6-14 50.95-15.65L50.95-15.65 52.5-15.05Q51.15-15 50.07-15 49-15 47.95-15.05L47.95-15.05 48-17.65Q48.75-17.55 49.3-17.5 49.85-17.45 50.45-17.45L50.45-17.45Q53-17.45 55.07-18.23 57.15-19 58.37-20.6 59.6-22.2 59.6-24.75L59.6-24.75Q59.6-27.75 57.8-29.6 56-31.45 51.8-31.45L51.8-31.45Q50.75-31.45 49.9-31.35 49.05-31.25 48.1-31L48.1-31 48.35-31.8 48.35-6.9Q48.35-5.1 48.65-4.1 48.95-3.1 49.65-2.73 50.35-2.35 51.55-2.25L51.55-2.25Q51.7-1.8 51.75-1.15 51.8-0.5 51.8 0.15L51.8 0.15Q50.75 0.05 49.55 0.03 48.35 0 47.25 0 46.15 0 45.4 0L45.4 0Q44 0 42.2 0.03 40.4 0.05 39.15 0.15L39.15 0.15Q39.15-0.5 39.2-1.13 39.25-1.75 39.4-2.25L39.4-2.25Q40.75-2.35 41.5-2.75 42.25-3.15 42.55-4.1 42.85-5.05 42.85-6.8L42.85-6.8 42.85-27Q42.85-28.8 42.55-29.75 42.25-30.7 41.5-31.1 40.75-31.5 39.4-31.55L39.4-31.55Q39.25-32.1 39.2-32.73 39.15-33.35 39.15-33.9L39.15-33.9Q40-33.85 41.82-33.83 43.65-33.8 45.55-33.8L45.55-33.8Q47.5-33.8 49.72-33.85 51.95-33.9 54.2-33.9L54.2-33.9Q58.1-33.9 60.55-32.77 63-31.65 64.17-29.73 65.35-27.8 65.35-25.35L65.35-25.35Q65.35-22.9 64.22-20.95 63.1-19 61.07-17.73 59.05-16.45 56.3-15.9L56.3-15.9 56.7-16.5Q58.1-15.2 59.07-14 60.05-12.8 61.07-11.18 62.1-9.55 63.55-7.05L63.55-7.05Q64.5-5.35 65.3-4.38 66.1-3.4 67.12-2.95 68.15-2.5 69.85-2.4L69.85-2.4Q69.85-1.75 69.8-1.18 69.75-0.6 69.6 0L69.6 0Q67.4 0 65.2 0.08 63 0.15 61.2 0.45Z" opacity="1" transform="matrix(1,0,0,1,0,0)" fill="#c10000" class="wordmark-text-0" data-fill-palette-color="primary" id="text-0"></path></svg></g></svg></g></svg></g></svg></g><g></g></svg></g><defs></defs></svg><rect width="395.52" height="202.3180371747212" fill="none" stroke="none" visibility="hidden"></rect></g></svg></g></svg>