<svg width="1500" height="780" viewBox="0 0 1500 780" fill="none" xmlns="http://www.w3.org/2000/svg">
<g clip-path="url(#clip0_804_38647)">
<path d="M1500 0H0V779.99H1500V0Z" fill="#E20613"/>
<path d="M293.49 300.31V318.23H255.46V360.77H293.49V549.7H357.11V360.77H400.97V318.23H357.11V304.33C357.11 285.07 364.24 277.89 381.27 277.89C389.3 277.89 396.93 278.39 404.58 279.29V231.79C393.82 231.38 382.15 229.98 370.98 229.98C319 229.98 293.49 259.59 293.49 300.31ZM495.19 549.7V230.01H431.62V549.7H495.19ZM629.99 311.96C559.71 311.96 511.81 364.82 511.81 434.21C511.81 503.6 557.05 556 629.99 556C682.41 556 720.49 532.7 738.35 478.07H682.41C678.37 492.43 657.81 508.07 632.22 508.07C596.89 508.07 577.16 489.72 575.4 449.4H742.4C746.91 378.22 708.83 311.96 629.99 311.96ZM575.4 409.1C576.28 391.21 587.95 359.9 628.23 359.9C659.11 359.9 672.97 376.88 678.83 409.1H575.39H575.4ZM1200.12 377.78C1200.12 322.26 1144.59 311.96 1098.47 311.96C1046.55 311.96 993.27 329.87 989.72 389.42H1053.26C1055.49 364.36 1071.17 354.5 1095.36 354.5C1117.73 354.5 1136.52 358.54 1136.52 385.85C1136.52 413.16 1100.28 410.48 1061.32 416.28C1021.92 421.67 982.51 434.22 982.51 486.58C982.51 534.08 1017.43 556 1061.32 556C1089.53 556 1119.08 548.35 1139.22 527.33C1139.63 534.93 1141.45 542.57 1143.68 549.7H1208.18C1202.35 540.32 1200.12 519.27 1200.12 498.22V377.77V377.78ZM1136.53 460.17C1136.53 474.06 1134.74 513.47 1085.07 513.47C1064.46 513.47 1046.08 507.67 1046.08 483.92C1046.08 460.17 1064.02 453.92 1083.72 449.88C1103.4 446.3 1125.79 445.86 1136.53 436.45V460.17ZM982.46 318.24H907.26L827.1 401.5V229.98H763.51V549.7H827.1V470.01L851.73 446.29L915.29 549.7H992.31L895.15 403.31L982.46 318.23V318.24ZM1347.89 231.62C1346.46 225.81 1343.4 220.53 1341.81 214.78C1339.58 206.58 1334.71 198.02 1329.62 191.09C1324.86 184.84 1317.65 180.39 1310.74 176.67C1304.03 173.01 1299.29 172.1 1291.62 173.15C1284.19 174.14 1278.16 174.31 1270.79 173.04C1265.97 172.21 1261.21 171.28 1256.48 170.43C1253.29 169.88 1249.63 168.95 1246.57 169.25C1242.17 169.55 1238.15 171.42 1234.32 173.65C1226.81 178.02 1222.35 186.03 1215.09 190.14C1209.78 193.22 1207.55 198.36 1204.61 203.62C1203.43 205.85 1202.77 207.94 1202.49 210.39C1202.27 212.82 1202.49 216.64 1202.1 218.84C1201.77 220.38 1199.21 225.11 1198.72 226.93C1197.92 230.01 1198.8 234.06 1197.23 236.78C1193.74 242.87 1195.22 248.92 1196.35 256.05C1198.22 267.28 1204.36 274.1 1213.96 279.49C1218.47 282.05 1219.6 282.27 1222.35 287.03C1223.67 289.45 1224.71 295.01 1226.51 297.1C1228.3 299.27 1233.42 300.54 1235.95 301.59C1242.03 304.06 1246.88 307.47 1252.46 310.91C1257.14 313.8 1261.46 313.58 1266.71 312.86C1274 311.87 1281.41 311.98 1288.67 310.6C1301.96 308.01 1316.44 306.58 1327.25 297.42C1335.34 290.59 1341.64 279.72 1345.66 270.1C1347.67 265.26 1346.4 261.62 1346.18 256.64C1346.04 252.73 1346.54 248.3 1347.09 244.45C1347.64 239.88 1349.01 236.36 1347.89 231.63" fill="white"/>
</g>
<defs>
<clipPath id="clip0_804_38647">
<rect width="1500" height="779.99" fill="white"/>
</clipPath>
</defs>
</svg>
